HIERARCHY
ROOT Hips
{
	OFFSET 0.00000 0.00000 0.00000
	CHANNELS 6 Xposition Yposition Zposition Zrotation Yrotation Xrotation 
	JOINT LHipJoint
	{
		OFFSET 0 0 0
		CHANNELS 3 Zrotation Yrotation Xrotation
		JOINT LeftHip
		{
			OFFSET 1.65412 -1.54119 0.76744
			CHANNELS 3 Zrotation Yrotation Xrotation
			JOINT LeftKnee
			{
				OFFSET 2.19550 -6.03209 0.00000
				CHANNELS 3 Zrotation Yrotation Xrotation
				JOINT LeftAnkle
				{
					OFFSET 2.38814 -6.56138 0.00000
					CHANNELS 3 Zrotation Yrotation Xrotation
					JOINT LeftToe
					{
						OFFSET 0.17337 -0.47632 1.75875
						CHANNELS 3 Zrotation Yrotation Xrotation
						End Site
						{
							OFFSET 0.00000 -0.00000 0.92050
						}
					}
				}
			}
		}
	}
	JOINT RHipJoint
	{
		OFFSET 0 0 0
		CHANNELS 3 Zrotation Yrotation Xrotation
		JOINT RightHip
		{
			OFFSET -1.40291 -1.54119 0.76744
			CHANNELS 3 Zrotation Yrotation Xrotation
			JOINT RightKnee
			{
				OFFSET -2.22156 -6.10370 0.00000
				CHANNELS 3 Zrotation Yrotation Xrotation
				JOINT RightAnkle
				{
					OFFSET -2.46840 -6.78188 0.00000
					CHANNELS 3 Zrotation Yrotation Xrotation
					JOINT RightToe
					{
						OFFSET -0.15659 -0.43024 1.84117
						CHANNELS 3 Zrotation Yrotation Xrotation
						End Site
						{
							OFFSET -0.00000 -0.00000 0.95587
						}
					}
				}
			}
		}
	}
	JOINT lowerback
	{
		OFFSET 0 0 0
		CHANNELS 3 Zrotation Yrotation Xrotation
		JOINT Chest
		{
			OFFSET -0.01936 1.82120 -0.32061
			CHANNELS 3 Zrotation Yrotation Xrotation
			JOINT Chest2
			{
				OFFSET -0.00532 1.85767 -0.00071
				CHANNELS 3 Zrotation Yrotation Xrotation
				JOINT lowerneck
				{
					OFFSET 0 0 0
					CHANNELS 3 Zrotation Yrotation Xrotation
					JOINT Neck
					{
						OFFSET -0.10687 1.58194 0.10810
						CHANNELS 3 Zrotation Yrotation Xrotation
						JOINT Head
						{
							OFFSET 0.15346 1.57382 -0.25612
							CHANNELS 3 Zrotation Yrotation Xrotation
							End Site
							{
								OFFSET 0.05334 1.61251 -0.10513
							}
						}
					}
				}
				JOINT LeftCollar
				{
					OFFSET 0 0 0
					CHANNELS 3 Zrotation Yrotation Xrotation
					JOINT LeftShoulder
					{
						OFFSET 2.85758 0.89498 -0.01485
CHANNELS 3 Zrotation Xrotation Yrotation
						JOINT LeftElbow
						{
OFFSET 0 -4.791850 -0.000000
CHANNELS 3 Zrotation Xrotation Yrotation
							JOINT LeftWrist
							{
OFFSET 0 -2.655530 0.000000
CHANNELS 3 Zrotation Xrotation Yrotation
								JOINT lhand
								{
									OFFSET 0 0 0
CHANNELS 3 Zrotation Xrotation Yrotation
									JOINT LFingers
									{
OFFSET 0 -0.743900 0.000000
CHANNELS 3 Zrotation Xrotation Yrotation
										End Site
										{
OFFSET 0 -0.599750 0.000000
										}
									}
								}
								JOINT LThumb
								{
OFFSET 0 0.000000 0.000000
CHANNELS 3 Zrotation Xrotation Yrotation
									End Site
									{
OFFSET 0 -0.608910 0.608910
									}
								}
							}
						}
					}
				}
				JOINT RightCollar
				{
					OFFSET 0 0 0
					CHANNELS 3 Zrotation Yrotation Xrotation
					JOINT RightShoulder
					{
						OFFSET -2.93906 0.88031 0.02490
CHANNELS 3 Zrotation Xrotation Yrotation
						JOINT RightElbow
						{
OFFSET 0 -4.772540 -0.000000
CHANNELS 3 Zrotation Xrotation Yrotation
							JOINT RightWrist
							{
OFFSET 0 -2.759950 -0.000000
CHANNELS 3 Zrotation Xrotation Yrotation
								JOINT rhand
								{
									OFFSET 0 0 0
CHANNELS 3 Zrotation Xrotation Yrotation
									JOINT RFingers
									{
OFFSET 0 -0.701620 0.000000
CHANNELS 3 Zrotation Xrotation Yrotation
										End Site
										{
OFFSET 0 -0.565660 0.000000
										}
									}
								}
								JOINT RThumb
								{
OFFSET 0 0.000000 0.000000
CHANNELS 3 Zrotation Xrotation Yrotation
									End Site
									{
OFFSET 0 -0.574300 0.574300
									}
								}
							}
						}
					}
				}
			}
		}
	}
}
MOTION
Frames: 4
Frame Time: 0.008333333333333333
0.088200 16.120900 -0.218400 -2.173300 10.958700 -1.661400 0.000000 0.000000 0.000000 -15.217600 -15.863600 4.505300 0.461600 4.358100 12.086400 0.135700 2.819900 -8.591000 0.638600 -5.112600 -14.229900 0.000000 0.000000 0.000000 21.451300 4.804300 6.859600 -0.321000 -3.642000 10.071700 0.196400 -15.851500 -20.413200 -0.077900 -1.800100 4.953500 -0.309400 1.003500 8.912900 0.774200 1.344100 0.222000 0.805200 0.680700 -4.795400 -15.515000 -12.922200 -6.574000 6.403500 -19.433100 43.230500 1.958900 -9.500300 20.660600 0.000000 0.000000 0.000000 2.949800 -1.415000 -31.888800 12.489000 -20.533900 2.270900 10.812900 -4.491700 -9.944500 0.000000 0.000000 0.000000 -7.125000 0.000000 0.000000 -14.090600 39.709300 -1.880700 0.000000 0.000000 0.000000 -13.515100 -5.611500 62.493700 -45.974000 -51.236800 -22.995700 -23.474600 24.329000 -20.094400 0.000000 0.000000 0.000000 7.125000 0.000000 -0.000000 3.170400 8.262700 2.686100
0.191821 16.139391 -0.254590 -1.463709 5.936244 -1.281357 0.000000 0.000000 0.000000 -16.198162 -12.316085 6.133382 0.240190 3.153738 8.707108 0.052644 5.001283 -8.668231 0.606250 -4.983975 -13.862721 0.000000 0.000000 0.000000 20.039249 6.953291 5.966694 -0.375453 -3.935438 10.895115 0.183275 -14.023311 -17.668122 -0.000999 -0.192445 0.528740 -0.701754 1.057310 8.423054 0.473450 1.362536 0.147187 0.718982 0.694886 -4.600295 -15.069328 -12.257620 -7.085351 5.247543 -18.058777 43.901935 1.610866 -9.045971 20.704014 0.000000 0.000000 0.000000 2.840854 -3.208886 -35.595929 13.378912 -21.839831 2.592553 10.728844 -5.761727 -10.361056 0.000000 0.000000 0.000000 -7.125000 0.000000 0.000000 -14.261052 40.112341 -1.759510 0.000000 0.000000 0.000000 -14.518978 -6.613282 67.134012 -42.776672 -49.631548 -20.530469 -24.021286 32.237747 -23.539479 0.000000 0.000000 0.000000 7.125000 0.000000 0.000000 3.185042 4.515375 2.929065
0.278466 16.160755 -0.252000 -0.934704 2.394081 -0.195488 0.000000 0.000000 0.000000 -16.687376 -8.648172 6.552565 0.084797 1.877939 5.168417 -0.003932 5.669796 -7.972946 0.456388 -4.333773 -12.017643 0.000000 0.000000 0.000000 18.828903 8.743683 4.195725 -0.446904 -4.288968 11.891017 0.078907 -12.203672 -16.272503 -0.005972 0.499650 -1.372990 -1.319525 0.617385 8.445051 0.401655 0.711180 -0.276479 1.069989 0.390647 -5.049319 -19.556887 -13.548293 -1.330734 11.334969 -19.985931 24.053588 4.760286 -10.110421 11.185460 0.000000 0.000000 0.000000 2.211547 -1.801387 -36.870498 12.776012 -20.958014 2.372609 12.135462 -7.057540 -10.818690 0.000000 0.000000 0.000000 -7.125000 0.000000 0.000000 -13.164889 40.684141 -1.429188 0.000000 0.000000 0.000000 -9.215246 -4.470991 61.433507 -34.654691 -44.563302 -14.570707 -14.512529 21.377407 -17.915275 0.000000 0.000000 0.000000 7.125000 0.000000 0.000000 8.868054 11.680885 6.974720
0.330205 16.137381 -0.104680 -0.911352 0.035523 -0.621846 0.000000 0.000000 0.000000 -16.824945 -5.815335 8.437251 0.034171 1.192254 3.277947 0.000293 5.656447 -8.079281 0.375208 -3.934267 -10.891884 0.000000 0.000000 0.000000 18.563744 8.881489 4.739818 -0.459884 -4.350039 12.063697 0.001889 -10.737018 -15.258740 -0.052387 1.476666 -4.061426 -2.804347 0.649025 7.310601 -0.281882 0.596026 -0.989746 1.213507 0.371604 -5.160754 -20.551107 -15.153364 0.222671 12.181179 -23.113125 25.687022 4.690814 -11.633228 12.380302 0.000000 0.000000 0.000000 2.812548 0.729473 -34.542189 13.472146 -21.974982 2.627359 12.186246 -6.891773 -10.511972 0.000000 0.000000 0.000000 -7.125000 0.000000 0.000000 -13.049770 40.384068 -1.514619 0.000000 0.000000 0.000000 -2.808586 -0.045619 41.003101 -16.281569 -25.900262 -3.768496 -11.725725 13.921751 -13.276941 0.000000 0.000000 0.000000 7.125000 0.000000 0.000000 10.737709 16.579535 7.359063
